<svg width="28" height="20" viewBox="0 0 28 20" fill="none" xmlns="http://www.w3.org/2000/svg">
<path d="M1.59091 8.21429L22.5909 8.21429L17.9773 3.03571C17.3409 2.32143 17.3409 1.25 17.9773 0.535714C18.6136 -0.178571 19.5682 -0.178571 20.2045 0.535714L27.5227 8.75C28.1591 9.46429 28.1591 10.5357 27.5227 11.25L20.2045 19.4643C19.5682 20.1786 18.6136 20.1786 17.9773 19.4643C17.3409 18.75 17.3409 17.6786 17.9773 16.9643L22.5909 11.7857L1.59091 11.7857C0.795455 11.7857 9.18995e-07 11.0714 9.18995e-07 10C9.18995e-07 8.92857 0.795455 8.21429 1.59091 8.21429Z" fill="#458FF6"/>
</svg>
