<svg width="880" height="968" viewBox="0 0 880 968" fill="none" xmlns="http://www.w3.org/2000/svg">
<g opacity="0.6" clip-path="url(#clip0_23_2)">
<path d="M-127.953 356.268C-66.577 285.781 54.6289 376.97 230.25 337.061C382.359 302.479 391.11 210.622 512.642 215.177C601.431 218.487 698.183 269.755 751.356 359.072C809.997 457.551 788.68 557.81 782.696 582.139C755.983 691.263 676.698 748.826 648.728 768.487C533.488 849.44 404.173 835.254 342.136 828.479C109.1 802.957 -140.386 636.583 -151.495 455.701C-152.971 432.021 -155.658 388.098 -127.953 356.268Z" fill="url(#paint0_linear_23_2)"/>
</g>
<defs>
<linearGradient id="paint0_linear_23_2" x1="456.823" y1="69.8267" x2="222.583" y2="775.635" gradientUnits="userSpaceOnUse">
<stop stop-color="#F3F7FF"/>
<stop offset="1" stop-color="#DEEEFE"/>
</linearGradient>
<clipPath id="clip0_23_2">
<rect width="937.962" height="671.376" fill="white" transform="translate(6.57764) rotate(21.4558)"/>
</clipPath>
</defs>
</svg>
